<svg width="36" height="36" viewBox="0 0 36 36" fill="none" xmlns="http://www.w3.org/2000/svg">
    <path d="M15.366 7.832c-.17.324-.315.512-.294.759.021.251.285.426.409.678.115-.29.303-.512.277-.742-.021-.23-.337-.528-.396-.699M19.7 7.832c.17.324.315.512.29.759-.022.251-.286.426-.41.678-.115-.29-.298-.512-.276-.742.02-.23.336-.528.396-.699M12.869 7.645a.295.295 0 0 0 0-.588.295.295 0 0 0 0 .588zM13.065 8.063a.295.295 0 0 0-.588 0 .295.295 0 0 0 .588 0zM13.21 8.774a.295.295 0 0 0-.588 0 .295.295 0 0 0 .588 0zM14.492 6.251a.295.295 0 0 0 0-.588.295.295 0 0 0 0 .588zM13.764 6.473a.295.295 0 0 0 0-.588.295.295 0 0 0 0 .588zM13.193 6.976a.295.295 0 0 0 0-.588.295.295 0 0 0 0 .588zM15.255 6.32a.295.295 0 0 0 .294-.294.291.291 0 0 0-.294-.29.294.294 0 0 0-.294.29c0 .157.132.294.294.294zM15.984 6.528a.295.295 0 0 0 .294-.294.291.291 0 0 0-.294-.29.294.294 0 0 0-.294.29c0 .158.132.294.294.294zM16.666 6.852a.295.295 0 0 0 0-.588.295.295 0 0 0 0 .588zM21.894 7.35a.295.295 0 0 0 .589 0 .295.295 0 0 0-.589 0zM22.282 7.773a.295.295 0 0 0 0 .588.295.295 0 0 0 0-.588zM22.142 8.48a.295.295 0 0 0 0 .588.295.295 0 0 0 0-.588zM20.565 6.251a.295.295 0 0 0 0-.588.295.295 0 0 0 0 .588zM21.294 6.473a.295.295 0 0 0 0-.588.295.295 0 0 0 0 .588zM21.865 6.976a.295.295 0 0 0 0-.588.295.295 0 0 0 0 .588zM19.798 6.32a.295.295 0 0 0 .294-.294.291.291 0 0 0-.294-.29.294.294 0 0 0-.294.29c0 .157.132.294.294.294zM19.073 6.528a.295.295 0 0 0 .294-.294.291.291 0 0 0-.294-.29.294.294 0 0 0-.294.29c0 .158.133.294.294.294zM18.098 6.558a.295.295 0 0 0 .588 0 .295.295 0 0 0-.588 0zM17.028 8.144h.328V6.89a1.09 1.09 0 0 1-.328-.103v1.356zM18.03 6.784a1.224 1.224 0 0 1-.329.102V8.14h.328V6.784zM17.339 5.403v-.741a.923.923 0 0 0-.72.741h.72zM17.723 5.403h.715a.918.918 0 0 0-.715-.741v.741zM16.627 5.761a.923.923 0 0 0 1.799 0h-1.799zM18.034 4.538c-.21-.162-.371-.4-.401-.647.239.042.507.217.665.422v-1.01c-.158.208-.426.383-.665.421.026-.242.179-.468.384-.724h-.976c.204.256.353.477.383.724a1.16 1.16 0 0 1-.665-.421v1.01c.158-.205.427-.38.665-.422-.03.247-.191.485-.4.647h1.01zM18.06 25.564a.362.362 0 1 1-.001-.724.362.362 0 0 1 0 .724zm-1.731-.532a.395.395 0 0 1-.396-.392c0-.218.179-.397.396-.397.217 0 .392.175.392.397a.388.388 0 0 1-.392.392zm-.597-1.756-.098-.073c-.179-.136-.328-.132-.49.005-.076.064-.145.145-.213.221l-.098.115.069.056c.187.153.217.315.161.413a.179.179 0 0 1-.098.077c-.093.025-.226-.009-.362-.09l-.072-.042-.043.072s-.021.034-.034.051c-.017.021-.03.047-.051.077-.081.14-.12.247-.12.337 0 .025 0 .046.01.068.029.102.11.153.182.192l.047.025c.085.055.205.124.294.175a.516.516 0 0 1-.503.021c-.251-.123-.413-.413-.413-.554 0-.217.098-.494.277-.78l.026-.042-.026-.047a1.75 1.75 0 0 1-.128-.252c.098.013.192.03.286.052l.047.008.034-.034c.11-.12.498-.511.856-.511.162 0 .328.085.456.225.094.107.15.23.166.354a2.709 2.709 0 0 1-.166-.123m3.384 1.389c-.925-.23-2.02-.627-3.047-1.091v-.013a.785.785 0 0 0-.209-.622.778.778 0 0 0-.58-.286.782.782 0 0 0-.277.056 4.57 4.57 0 0 1-.426-.435 5.037 5.037 0 0 1-.903-1.572 5.433 5.433 0 0 1-.264-1.044c-.047.298-.384.694-.963.698.008-.063 0-.213-.051-.225-.15.166-.38.35-.9.166.081.409.192.81.337 1.197a7.092 7.092 0 0 0 1.325 2.225c.188.213.384.409.593.592a1.139 1.139 0 0 0-.009.12c0 .217.209.558.507.707.247.12.512.09.75-.085a8.53 8.53 0 0 0 1.632.634c.69.192 1.36.299 1.88.299.451 0 1.044-.213 1.632-.58.234-.149.456-.31.618-.469.025-.02.042-.042.064-.06-.456.065-1.147-.063-1.71-.204M18.852 28.402c-.068-.123-.162-.196-.247-.196-.375 0-.23.993-.678.993-.196 0-.302-.123-.302-.264 0-.14.098-.179.098-.294 0-.115-.09-.153-.188-.153s-.183.042-.183.153c0 .11.098.153.098.294 0 .14-.107.264-.303.264-.447 0-.298-.993-.677-.993-.086 0-.184.069-.247.196a.886.886 0 0 1-.12-.387c0-.184.14-.435.435-.435.503 0 .388.686.626.686.107 0 .183-.064.183-.166 0-.196-.349-.38-.349-.66 0-.282.256-.516.533-.738.281.226.537.46.537.737 0 .277-.35.465-.35.66 0 .103.077.167.183.167.24 0 .124-.686.627-.686.294 0 .435.251.435.435a.914.914 0 0 1-.116.387m-1.308 1.39a.243.243 0 0 1-.243-.243.25.25 0 0 1 .243-.247.25.25 0 0 1 .247.247c0 .136-.11.242-.247.242zm.997-2.408a.667.667 0 0 0-.187.025v-1.103a7.745 7.745 0 0 1-1.61-.243v1.35a.626.626 0 0 0-.822.597c-.001.286.165.546.31.712.072-.17.14-.311.234-.311.192 0 .102.954.665.984a.438.438 0 1 0 .848.153.447.447 0 0 0-.026-.153c.563-.025.47-.984.66-.984.099 0 .159.132.244.31.145-.165.31-.425.31-.71a.627.627 0 0 0-.625-.627z" fill="#1C1C1B"/>
    <path d="M31.487 28.71a.122.122 0 0 0-.145-.073c-1.291.375-2.893-.69-4.445-1.726-1.304-.87-2.535-1.688-3.592-1.688-.392 0-.737.085-1.035.248-.371.204-.644.524-.823.954-.179.43-.366.724-.516.963-.179.286-.31.486-.31.742 0 .208.089.396.268.575.149.149.362.298.677.464.069.034.132.064.196.098.256.124.418.21.448.354-.512.226-1.172.413-1.922.541-.848.15-1.777.222-2.757.222-.98 0-1.91-.077-2.757-.222-.75-.132-1.415-.32-1.926-.545.02-.218.178-.299.46-.435.064-.03.132-.064.2-.098.256-.136.499-.268.665-.418.183-.161.264-.332.264-.54 0-.256-.128-.46-.307-.742-.149-.239-.337-.533-.516-.963a1.835 1.835 0 0 0-.822-.95 2.15 2.15 0 0 0-1.035-.248c-1.057 0-2.289.823-3.593 1.692-1.551 1.031-3.153 2.101-4.444 1.726a.118.118 0 0 0-.145.072.12.12 0 0 0 .064.15c.392.174.741.443 1.073.703.465.362.904.707 1.39.707.46 0 .95-.145 1.55-.46.52-.273 1.062-.64 1.582-.997 1.023-.7 2.075-1.42 3.076-1.496-.106.106-.208.2-.302.285-.294.265-.55.49-.55.955 0 .367.124.622.299.984.05.103.106.222.166.358.11.247.157.448.226.72.03.12.06.252.102.41.064.238.183.681.916 1.056.852.435 2.318.652 4.36.652 2.04 0 3.507-.221 4.359-.652.733-.375.852-.818.916-1.056.043-.158.077-.29.102-.41.069-.272.116-.473.226-.72.081-.179.162-.328.23-.46.154-.285.273-.515.273-.844 0-.464-.268-.707-.58-.984-.098-.09-.204-.183-.31-.298 1 .08 2.058.797 3.076 1.495.52.354 1.061.725 1.581.998.601.31 1.095.46 1.551.46.482 0 .925-.345 1.39-.708.332-.26.681-.528 1.073-.703a.12.12 0 0 0 .064-.149M17.706 18.682v-4.845c.502.025.997.145 1.457.375.503.247.95.6 1.338 1.057.388.456.69.984.903 1.572.213.584.32 1.206.329 1.845H17.7l.005-.004zm-.171-6.87c-1.376 0-2.322.405-2.872.772-.32-.188-.456-.375-.456-.592 0-.78 2.207-.853 3.328-.853 1.12 0 3.328.069 3.328.853 0 .217-.136.404-.456.592-.55-.367-1.495-.771-2.872-.771zm-.068 6.87h-4.125c.008-.64.12-1.257.328-1.845a5.084 5.084 0 0 1 .903-1.573c.388-.451.836-.81 1.338-1.056a3.637 3.637 0 0 1 1.556-.38v4.854zm6.26-.311a1.722 1.722 0 0 1-.499-.58 57.144 57.144 0 0 0-.895-1.747.774.774 0 0 1-.123-.375c0-.132.068-.238.136-.337.051-.063.192-.2.243-.28a.758.758 0 0 1 .115-.15 6.12 6.12 0 0 0-.78-1.052 6.288 6.288 0 0 0-1.253-1.087c.248-.158.495-.388.495-.776a.717.717 0 0 0-.256-.55c.26-.826.72-1.823 1.117-2.262l-.831-.35c.213.328.23.712.183.938-.218-.15-.4-.354-.46-.627-.043.252-.18.661-.307.904.238-.11.43-.166.673-.064a.996.996 0 0 1-1.044.35c-.294-.073-.588-.226-.575-.457.008-.136.106-.298.294-.28.179.016.191.293.136.417.239-.137.486-.831.11-.933-.289-.081-.557.32-.655.626-.056-.37-.21-.724-.503-.703-.384.025-.256.729-.124.912.021-.247.158-.38.273-.371.102.009.234.077.213.303-.026.225-.345.362-.712.362-.366 0-.967-.107-1.027-.784.23.042.584.213.738.443a4.515 4.515 0 0 1 0-1.125c-.188.268-.508.405-.73.443.065-.29.312-.597.606-.78h-1.509c.29.183.537.486.606.776a1.15 1.15 0 0 1-.716-.44c.047.427.047.717 0 1.126.149-.226.498-.396.724-.439-.06.673-.673.784-1.023.784-.366 0-.686-.136-.711-.362-.022-.226.115-.298.213-.303.11-.008.247.124.273.371.132-.179.255-.886-.124-.912-.294-.021-.448.332-.503.703-.098-.307-.362-.707-.656-.626-.37.102-.124.797.115.933-.056-.124-.047-.396.136-.418.184-.017.286.145.29.282.013.23-.281.383-.575.456-.541.127-.9-.158-1.044-.346.247-.106.443-.055.686.06a3.652 3.652 0 0 1-.307-.903c-.064.277-.251.486-.473.635a1.314 1.314 0 0 1 .183-.942l-.83.35c.396.438.86 1.44 1.116 2.266a.686.686 0 0 0-.247.542c0 .383.247.617.494.775-.456.299-.874.66-1.253 1.087a7.012 7.012 0 0 0-1.325 2.207c.115.12.61.66.728.806.21.26.329.524.337.724.013.375.094.524.294.776.064.076.154.375.162.554h4.12v4.487c-.161.013-.332.051-.472.221.477.192.929.363 1.385.508.042-.294.102-.478.251-.657 0 0-.596-.06-.92-.076V18.92h4.027a5.634 5.634 0 0 1-.328 1.777 5.168 5.168 0 0 1-.904 1.572c-.388.456-.835.81-1.338 1.057-.08.038-.077.098-.162.132-.072.077-.14.209-.2.362-.051.137-.068.23-.094.41.188.059.29.089.473.131 1.415.354 1.764.252 1.845.188.316-.247.614-.524.891-.835a7.092 7.092 0 0 0 1.325-2.225c.324-.86.486-1.777.486-2.718 0-.17.004-.23-.004-.401z" fill="#1C1C1B"/>
    <path d="M19.96 15.801c-.039.034-.051.081-.043.115.013.043.047.077.12.081a.27.27 0 0 0-.094.17.264.264 0 0 0 .187-.042c-.017.073.009.115.043.137a.105.105 0 0 0 .106 0c.303.494.512 1.056.605 1.636a.268.268 0 0 0-.149-.043c0 .085.039.145.081.188h-1.005c.008-.064-.026-.12-.069-.132-.038-.017-.09-.009-.136.047a.27.27 0 0 0-.08-.18.25.25 0 0 0-.078.18c-.047-.056-.093-.064-.136-.047-.038.012-.072.068-.068.132h-.861a.265.265 0 0 0 .06-.17.239.239 0 0 0-.17.063v-1.393c.063.013.123-.021.136-.064.012-.043.008-.09-.047-.136.06 0 .12-.026.179-.081a.25.25 0 0 0-.18-.077c.056-.047.065-.098.048-.136-.013-.043-.073-.077-.137-.064v-1.18c.039.029.086.05.15.059a.255.255 0 0 0-.043-.166c.268.085.528.213.775.379.29.196.559.443.797.733m1.147 2.08c.068.046.046.157-.043.148a4.576 4.576 0 0 0-.776-2.045l.013-.013a.253.253 0 0 0 .17-.209.258.258 0 0 0-.26.115l-.089-.114c-.255-.329-.55-.601-.873-.819a3.22 3.22 0 0 0-.972-.443c.004-.08.11-.09.15-.021.012-.128-.099-.192-.163-.166-.034.012-.064.042-.072.102a.284.284 0 0 0-.183-.098.273.273 0 0 0 .06.192c-.056 0-.086.02-.107.05-.034.06.012.18.14.188-.06-.05-.034-.149.043-.14v1.576a.265.265 0 0 0-.26.069.247.247 0 0 0 .26.068v1.713c-.085.008-.107-.098-.038-.145-.128 0-.184.115-.154.175.021.038.056.068.132.064a.263.263 0 0 0-.068.178c.077 0 .136-.03.179-.068-.004.073.026.111.064.133.06.03.175-.026.175-.154-.047.064-.15.047-.15-.034h1.19a.265.265 0 0 0 .068.26.265.265 0 0 0 .068-.26h1.325c.009.08-.098.107-.145.043 0 .127.12.178.18.149.042-.022.067-.06.059-.132a.264.264 0 0 0 .183.064.287.287 0 0 0-.072-.18c.072 0 .11-.025.132-.063.025-.06-.03-.175-.158-.175" fill="#1C1C1B"/>
    <path d="M20.394 17.455c.052-.026.094-.06.111-.102-.06.02-.102-.01-.115-.013.038-.022.09 0 .038-.073-.046-.072-.076-.076-.127-.021-.047.051-.367-.013-.367-.256a.195.195 0 0 0 .111.09c.013.008.026.013.038.017.013 0 .026.004.043.008.034.009.064.017.09.013h.017v-.008c.063-.013.119-.056.123-.124.013-.132-.115-.192-.251-.307a1.95 1.95 0 0 1-.128-.12c-.047-.093-.017-.178-.137-.353-.008-.043-.017-.09-.038-.153a.442.442 0 0 0 .073.507c.132.145.417.285.409.413 0 .03-.03.056-.073.064-.013 0-.025 0-.038-.004-.009 0-.017 0-.026-.009a.367.367 0 0 1-.158-.102c-.119-.11-.225-.273-.298-.362-.132-.17-.072-.333-.05-.473.093-.128-.056-.392-.146-.456 0 0 .017-.06-.004-.136-.017.012-.06.012-.081.008-.026-.047-.034-.06-.068-.064-.055-.008-.055-.043-.06-.064-.034.03-.047.06-.08.06-.048 0-.069 0-.086.017-.034.025-.047.038-.098.034-.055 0-.051.03-.047.068.004.026.009.064.038.077l.017.008.043.052.03-.056c.021-.021.094-.025.107.021.008.034.017.047-.03.051-.047.01-.073.01-.115.01-.03 0-.03.037-.03.063 0 .03.038.047.102.03s.175-.03.175.025c0 .141-.162.137-.2.307-.043-.03-.082-.055-.099-.093a.566.566 0 0 0-.119-.15.758.758 0 0 0-.123-.102c-.056-.034-.06-.06-.06-.12 0-.05.021-.097.021-.144a.391.391 0 0 0-.013-.043c-.008-.034-.05-.055-.076-.05.012.008.03.02.03.05a.076.076 0 0 0-.022.026c-.008.013-.017.034 0 .05v.035c0 .008-.004 0-.008 0-.013-.034-.03-.09-.064-.09h-.021v-.008c0-.038-.043-.064-.086-.021.013 0 .03.004.034.013a.216.216 0 0 0-.008.038c0 .034.025.055.068.055.008 0 .008 0 .013.009 0 .004 0 .013.004.017 0 .004 0 .004-.004 0-.064-.03-.094 0-.098.03v.025c-.026.017-.03.051.013.077 0-.013 0-.034.012-.043 0 0 .009 0 .009-.004a.06.06 0 0 0 .017.017s.017 0 .038-.013c.005 0 .009-.004.017 0a.098.098 0 0 0 .022.013v.009c-.043.042-.035.08.017.093-.026.047-.103.03-.098-.042-.056.09.038.153.11.12 0 .029 0 .097.013.097 0-.004.005-.017.017-.017.005 0 .009 0 .009.008 0 .022.008.047.038.052-.004-.013 0-.022.009-.03.008.021.025.043.038.064.038.068.11.238.281.31a.783.783 0 0 0-.2.193c-.047.046-.12.098-.162.072-.017-.013-.026-.03-.051-.051a.114.114 0 0 0-.056-.017s-.017.004-.03.013c-.03-.013-.076 0-.089.025.017 0 .034-.008.06.009v.03c0 .02.013.042.102.038 0 0 .017 0 .009.009-.009.008-.026.02-.047.012-.038-.008-.06-.042-.085-.004 0 0-.009.013-.017.021h-.009c-.034.013-.068.077-.026.107 0-.013.005-.038.026-.056.009.009.017.018.017.022.026.038.055.06.11-.03.005-.009.01 0 .01 0 0 .043-.043.102.008.106h.025v.009c.009.047.077.06.103.047-.017-.009-.047-.021-.056-.06h.026c.034-.034-.009-.072.008-.094 0-.008.009-.004.013 0 .013.018.039.06.085.035.022-.017.035-.035.035-.056.06-.026.115-.043.157-.03-.008-.03.03-.072.094-.09.064-.016.09 0 .11.022a.342.342 0 0 1 .065-.11c-.009.25.332.247.409.396-.102-.043-.218-.069-.277-.056-.081.017-.226.094-.247.188-.013.076.064.213.145.268-.098.017-.133-.008-.222.013h-.009c-.076.008-.09-.128-.179-.09a.092.092 0 0 0-.025.017c-.034 0-.085.043-.077.081.009-.008.03-.03.06-.034v.017c0 .013 0 .03.034.03.021 0 .026-.008.038-.008.005 0 .009.004.009.008 0 .034-.115-.021-.094.077l.017.026c0 .03.021.06.072.042-.008-.008-.03-.021-.025-.034h.021c.009 0 .009 0 .013-.013 0 0 0-.004.004-.004.005 0 .013.004.013.009 0 .004-.009.008-.009.02 0 0 .005.026.01.03 0 .035.046.073.097.035-.013 0-.047-.009-.047-.026.009 0 .021-.008.026-.008.008-.005.008-.017.008-.034 0-.009 0-.009.009-.009h.025c.009 0 .013 0 .017.009.013.02.039.042.073.03.021-.01.025-.018.03-.026.012.008.025.017.042.025-.008-.034.017-.063.094-.012l.055-.043s.077.03.103 0c.047-.043.021-.043.021-.08-.034-.078-.051-.07-.068-.142-.026-.123.149-.196.251-.174.022.08.132.29.32.35.115.042.162-.086.2-.069.009 0 .013.017.022.034-.009.056 0 .107-.013.136-.013.026-.077 0-.115 0-.026 0-.043.018-.047.022-.034.004-.077.038-.077.076.013-.008.034-.03.064-.034v.017c.004.052.06.064.094.035 0-.009.017 0 .008.004-.03.021-.08.068-.034.09l.026.012c0 .034.021.06.047.064-.009-.017-.013-.026 0-.06h.025c.034 0 .017-.06.051-.076 0-.005.009 0 .009 0-.013.034-.017.076.013.09 0 0 .012 0 .025.003.009.03.043.047.09.026a.097.097 0 0 1-.043-.03c.009-.013.021-.026.021-.03.022-.076-.042-.076-.042-.106 0-.039.076-.013.076-.09v-.013c.035-.02.073-.042.077-.072a.252.252 0 0 1-.094-.017v.013zM16.64 19.7h-.055c-.064-.008-.15.022-.154.107-.004.085.056.136.137.14h.042s-.004.039-.008.06c-.017.12-.051.328-.085.563l-.614-.882c.29-.115.52-.239.643-.239.098 0 .12.047.098.252m-.238 1.53-.968-1.394c.107-.026.213-.055.311-.094l.73 1.04c-.022.145-.048.298-.073.443m-.098.63-1.372-1.977h.127c.073 0 .141 0 .213-.012l1.104 1.58c-.025.154-.047.295-.068.405m-1.56-1.956 1.509 2.17c-.81-.316-1.611-1.036-1.509-2.17zm2.246-.17h-.068v-.068c.008-.243-.136-.422-.396-.422-.23 0-.678.303-1.304.303-.269 0-.584-.133-.785-.248l-.076.188v-.017a.153.153 0 0 0-.154-.154.153.153 0 0 0-.153.154c0 .085.068.153.153.153a.156.156 0 0 0 .12-.06l-.077.188c.026.013.055.021.081.034-.09.95.61 2.16 1.85 2.527.183-.05.37-.021.37.18 0 .123-.064.178-.175.178-.076 0-.123-.042-.123-.094 0-.08.145-.034.162-.09.017-.076-.03-.11-.115-.11s-.218.056-.218.2c0 .17.137.273.282.273.136 0 .426-.076.387-.418.069 0 .141-.008.158-.072l.013-.192-.068-.008.05-2.178h.052c.081.009.15-.025.153-.11.005-.086-.064-.128-.127-.137M15.894 15.132s.017-.03.026-.03c.017 0 .025 0 .03-.02.008-.018-.013-.026-.026-.04.017-.003.026-.008.017-.02-.013-.013-.03.008-.034 0 0-.01.013-.018.017-.022.009-.008.013-.004.021 0l.077.039s.017.008.017.02c0 .01 0 .022-.004.026-.009 0-.009-.025-.021-.025-.013 0-.013.008-.005.03-.02-.009-.034-.017-.042 0-.009.017-.004.025.004.038.009.008 0 .021-.004.038-.004.017-.03.043-.056.03-.03-.013-.025-.047-.017-.064zm.094-.2c-.013.021-.043.038-.06.021-.02-.021 0-.025-.02-.068a.353.353 0 0 0 .084.047m.056.034s.068.034.098.038c-.043.009-.034.03-.064.026-.026 0-.038-.038-.034-.064zm-.213.051h-.005.005zm.899.328c.294 0 .439-.093.439-.187 0-.324-.81-.124-.81-.324 0-.034.021-.06.06-.09h.013c.404-.038.413-.32.703-.374-.35-.052-.4.225-.55.238.081-.038.11-.132.102-.17-.072.093-.23.102-.315.213-.013.017-.021.038-.013.055-.051.034-.085.073-.085.12 0 .306.822.097.822.319 0 .077-.14.132-.366.132-.166 0-.29-.12-.605-.038 0-.051.106-.154.064-.2.03-.013.05-.039.05-.06a.114.114 0 0 0-.059-.03c.009-.017 0-.034-.017-.043 0 0-.008-.038-.017-.042-.013-.009-.034-.03-.072-.047-.034-.017-.06-.017-.073-.021l-.047.004c-.021 0-.038 0-.042.021-.017-.017-.034-.021-.06-.025a.112.112 0 0 0-.008.085c-.03 0-.06.076-.09.068.009.021.021.03.026.03-.022.043-.035.098-.06.098.008.008.017.017.021.025a.813.813 0 0 0-.042.188s-.039-.038-.064-.051c-.047-.026-.047-.051-.039-.098.005-.043.034-.077.039-.115a.161.161 0 0 0-.009-.039c-.004-.025-.042-.046-.064-.042.013.008.022.017.022.042-.009.009-.022.017-.022.022-.013.012-.017.03-.004.042v.009c0 .004 0 .008-.004.017 0 .008 0 0-.005 0-.004-.03-.017-.073-.042-.073h-.021V15c.004-.03-.03-.055-.073-.017.009 0 .026 0 .03.013a.057.057 0 0 0-.013.03c-.004.03.017.042.051.042h.013v.013c0 .009 0 .004-.004.004-.056-.025-.085 0-.09.022v.021c-.021.013-.034.038 0 .064 0-.009 0-.03.017-.034h.009c0 .004.013.013.013.013.004 0 .012 0 .038-.009h.013s.008.004.017.013v.008c-.047.034-.047.069.008.077.005 0 .009 0 .005.009-.013.068-.111.05-.094-.013-.064.076.021.132.098.098h.008c0 .013.009.021.022.025 0 0 .004-.017.017-.017.004 0 .004 0 .004.009 0 .017 0 .038.03.043 0-.013 0-.026.013-.026.012 0 .034.055.076.102a.923.923 0 0 1-.183.056c-.017 0-.11-.009-.14.008-.047.026-.162.068-.197.017-.012-.017-.008-.034-.02-.055-.014-.017-.026-.03-.04-.03h-.029c-.017-.021-.06-.026-.077-.009.013 0 .03.005.043.03-.004.009-.013.022-.013.026-.008.013 0 .038.068.064 0 0 .009.008 0 .013-.012.004-.025.008-.042 0-.03-.022-.03-.056-.069-.035 0 0-.012.005-.02.013h-.01c-.03 0-.08.034-.059.073.004-.009.017-.03.038-.034 0 .008.005.02.009.02.008.04.021.065.098.018.008-.004.008 0 .004.004-.017.03-.068.064-.03.09 0 0 .009.008.017.012v.009c-.008.043.039.072.064.072a.065.065 0 0 1-.025-.063c.008 0 .021.004.021.004.034-.013.021-.06.038-.073.005-.004.009 0 .009 0 0 .017.008.06.055.056.043-.005.06-.039.056-.06v-.004c.017.008.025.025.021.047.008 0 .026-.017.03-.03.008.021.013.047-.017.077a.108.108 0 0 0 .072-.073c.009.009.013.017.013.026a.164.164 0 0 0 .09-.005c.004 0 .008 0 .004.005-.005.017-.005.034.004.042 0-.004.013-.021.017-.021.013 0 0 .043.026.068.008-.11.068-.068.136-.11.008-.005.008 0 .008 0a.057.057 0 0 1-.03.034c.026 0 .086-.026.086-.065 0-.008.021-.02.043-.038.025.005.064-.008.076-.034 0 .013.017.043 0 .051.073.005.145-.076.175-.085.153-.034-.098-.145.221-.124a.193.193 0 0 0 .094-.034c-.025.047-.025.145.022.15.02 0 .064.017.08.034v.008c-.03 0-.055.013-.068.017-.072.047-.076-.11-.153-.08 0 0-.013.012-.021.016-.03 0-.073.039-.069.073a.096.096 0 0 1 .052-.03v.017c0 .013 0 .026.03.026.017 0 .02-.01.03-.01.003 0 .008 0 .008.01 0 .03-.094-.018-.081.063l.013.026c0 .026.017.051.06.034-.01-.008-.026-.017-.022-.03h.021s.009 0 .009-.013c.004 0 .008 0 .008.009 0 .004-.008.008-.008.017 0 0 .004.021.008.026-.004.03.039.06.081.03-.012 0-.038-.01-.042-.022.008 0 .017-.008.021-.008.008-.005.008-.017.008-.03 0-.009.005-.009.009-.009h.021c.009 0 .013 0 .017.005a.05.05 0 0 0 .06.025c.051-.017.009-.064.051-.072.009 0 .021-.005.03 0 .043.008.102.008.115-.013.009-.021.004-.094-.038-.124-.026-.013 0-.042-.026-.08a.354.354 0 0 0 .154.038c.115 0 .004-.017.055-.047.055-.034.12-.017.136-.013.017 0 .026.008.022.025-.013.06.004.064-.009.094-.008.026-.06.005-.094 0-.017 0-.034.013-.034.013-.03.009-.06.03-.06.064a.095.095 0 0 1 .052-.026v.013c.004.043.047.056.072.026 0-.005.017 0 .009.004-.022.017-.064.055-.03.072l.021.009c0 .026.017.051.038.055-.008-.012-.008-.02 0-.05h.022c.025 0 .013-.048.043-.065h.004c-.009.03-.017.064.012.073 0 0 .013 0 .022.004.008.021.034.038.068.021-.009 0-.026-.012-.03-.021.009-.008.017-.021.017-.026.017-.06-.034-.064-.034-.085 0-.03.06-.012.06-.072a.042.042 0 0 0-.026-.039s.034.005.043-.017c-.043 0-.03-.034-.038-.06v-.008c.012-.008.025-.03.02-.064-.012.022-.063.043-.067 0 0 0 0-.034-.047-.025-.073.008-.111-.03-.256-.043-.009 0-.017-.008 0-.008M15.17 16.398s.017-.034.03-.034c.017 0 .03 0 .034-.021.008-.022-.013-.035-.034-.047.021-.005.034-.017.021-.026-.013-.013-.034.009-.038 0-.005-.013.012-.017.017-.021.008-.009.017-.009.03 0l.09.042s.02.009.02.022 0 .03-.008.034c-.009 0-.009-.03-.026-.034-.017 0-.017.013-.004.034-.021-.009-.043-.017-.051 0-.009.017-.004.03.008.047.009.008 0 .025-.004.047-.008.02-.034.05-.064.034-.034-.017-.03-.056-.021-.073m.107-.239c-.013.026-.047.047-.073.022-.021-.021 0-.034-.026-.077.03.021.081.051.098.055zm.068.035s.08.038.11.042c-.05.009-.038.034-.072.03-.034 0-.047-.047-.043-.077m1.803.252c0-.09-.098-.145-.388-.145-.29 0-.937.106-.937-.056 0-.08.127-.072.277-.063.012.012.03.025.064.034.37.106.81-.086 1.035-.026-.264-.2-.486.009-.767-.055.166 0 .222-.047.23-.094-.128.085-.37-.043-.524.051-.008.004-.017.013-.026.021-.204-.004-.37-.004-.37.133 0 .285.771.119 1.014.119s.294.025.294.072c0 .068-.243.085-.375.085-.209 0-.844-.11-1.227-.034.03-.063.102-.144.064-.187.034-.013.06-.043.06-.073a.13.13 0 0 0-.069-.034c.013-.017 0-.034-.017-.05 0-.005-.008-.043-.021-.052a.262.262 0 0 0-.086-.055c-.042-.022-.068-.022-.089-.026-.008 0-.047.009-.051.009-.021-.005-.047-.005-.047.02a.127.127 0 0 0-.064-.029c-.017.03-.021.055-.008.102-.035 0-.069.09-.103.081.013.026.022.034.034.039-.03.05-.042.11-.072.115.021.03.034.038.047.042-.005.039-.005.077-.009.111l-.06-.021h-.016c-.009 0-.018 0-.026-.009.008 0 .017 0 .026.005l-.034-.013c-.035-.026-.073-.077-.128-.107-.056-.034-.056-.06-.051-.119 0-.051.03-.098.03-.14a.257.257 0 0 0-.014-.047c-.004-.03-.046-.056-.072-.052.013.009.03.022.03.052-.013.008-.021.02-.026.025-.008.013-.017.03 0 .051v.009c0 .004 0 .012-.004.021 0 .008-.004 0-.004 0-.013-.034-.026-.09-.056-.09h-.025v-.004c0-.038-.039-.068-.085-.021.008 0 .025.004.034.017a.206.206 0 0 0-.013.038c-.004.039.021.052.06.052.008 0 .012 0 .012.008v.017c0 .009 0 .004-.008 0-.064-.03-.094 0-.094.034v.026c-.025.017-.034.05.009.076 0-.012 0-.034.017-.042 0 0 .004 0 .008-.004.005.008.013.017.017.017.005 0 .017 0 .039-.013.004-.004.008-.004.017 0 .004 0 .012.008.017.013.004 0 .004.008 0 .012-.047.043-.043.086.017.094.008 0 .008.004.008.013-.008.08-.115.064-.106-.017-.064.094.038.166.119.12 0-.005.009 0 .009 0 0 .016.008.029.025.029 0-.004.004-.017.021-.017.005 0 .005 0 .005.008 0 .022.008.047.038.052-.004-.017 0-.035.013-.035s.051.064.115.103c.055.021.094.08.128.047-.005.055.047.119.034.119-.017 0-.166-.013-.205.009-.055.03-.187.076-.226.02-.012-.02-.008-.037-.025-.063-.013-.021-.03-.034-.043-.034h-.03c-.02-.021-.072-.026-.09-.009.018 0 .035.009.052.034l-.013.026c-.013.017-.004.047.081.077 0 0 .009.008 0 .012-.012.005-.03.009-.047-.004-.034-.025-.038-.064-.076-.042l-.026.012h-.008c-.039 0-.094.043-.069.086a.074.074 0 0 1 .047-.039c0 .009.009.021.009.026.008.042.025.076.115.017.008-.009.008 0 .008.004-.02.038-.076.073-.034.102l.017.017v.009c-.008.051.047.09.073.085a.092.092 0 0 1-.026-.076c.009 0 .021.008.026.004.042-.017.025-.068.047-.081.008-.009.012 0 .012 0 0 .021.013.068.064.064.047 0 .073-.043.069-.069 0-.004 0-.004.004-.004.017.009.03.03.025.051.009 0 .026-.017.039-.034.008.026.012.056-.022.085.018-.008.069-.03.081-.085.005.009.017.017.017.03l.005-.004a.238.238 0 0 0 .098 0c.004 0 .008 0 .008.004-.004.017-.004.039.005.051 0-.004.012-.025.02-.025.014 0 0 .05.03.08.01-.127.082-.076.158-.127.009-.004.009 0 .009.004 0 .017-.013.03-.034.043.085.017.226-.115.247-.17.034-.005.068-.01.085-.01.252.022.077-.225.482-.157a.19.19 0 0 0 .098-.047c-.03.051-.03.162.025.17a.223.223 0 0 1 .098.043c.009.005 0 .005 0 .009a.227.227 0 0 0-.076.017c-.086.06-.09-.128-.18-.094a.089.089 0 0 0-.025.017c-.034 0-.085.043-.077.081.013-.013.03-.03.06-.034v.021c0 .013 0 .03.034.03.017 0 .021-.008.034-.008.009 0 .013 0 .013.008 0 .034-.115-.021-.094.077 0 0 .009.021.017.03 0 .03.021.06.073.042-.009-.004-.026-.017-.026-.034h.021c.005 0 .009 0 .013-.017h.004c.005 0 .009 0 .009.009 0 .004-.004.012-.004.02 0 0 0 .027.008.03-.004.035.047.073.098.035-.013 0-.047-.009-.05-.026.012-.004.02-.008.025-.008a.049.049 0 0 0 .012-.034c0-.009.005-.009.009-.009h.021c.013 0 .017 0 .017.009a.057.057 0 0 0 .073.03c.06-.022.013-.077.06-.086h.034c.046.013.119.013.132-.013.012-.025.004-.11-.047-.14-.03-.013 0-.051-.026-.098.056.021.107.043.18.043.131 0 .165-.018.225-.056.064-.038.14-.017.158-.017.017 0 .03.009.025.034-.017.068.009.073-.008.107-.013.025-.069 0-.107 0a.056.056 0 0 0-.042.017c-.035.008-.069.034-.069.072a.145.145 0 0 1 .06-.034v.017c0 .047.056.064.085.03 0-.004.017 0 .009.008-.026.022-.077.064-.034.081 0 0 .013.009.025.013 0 .03.017.056.043.064-.009-.017-.013-.025 0-.06h.021c.03 0 .017-.06.047-.076h.004c-.012.034-.017.077.013.085 0 0 .013 0 .026.004.008.026.042.047.08.026-.008 0-.03-.013-.033-.03a.1.1 0 0 0 .02-.03c.022-.068-.042-.072-.042-.098 0-.034.068-.013.068-.08 0-.014-.004-.035-.03-.043v-.005s.039.005.052-.021c-.051 0-.039-.043-.043-.068v-.013c.017-.013.03-.034.021-.077-.017.026-.076.052-.08 0 0 0 0-.038-.056-.025-.09.008-.15-.009-.315-.026.187 0 .468-.051.468-.157M14.842 17.672s.017-.034.025-.034c.022 0 .03 0 .034-.021.009-.022-.012-.034-.03-.043.022-.004.03-.017.022-.026-.013-.008-.034.009-.038 0 0-.008.012-.017.017-.02.008-.014.017-.01.025 0l.09.042s.017.013.017.021c0 .009 0 .026-.005.03-.008 0-.008-.026-.025-.03-.013 0-.013.009 0 .03-.021-.009-.043-.017-.051 0-.009.017-.005.03.008.043.005.008 0 .025-.004.042-.008.021-.034.047-.06.034-.034-.017-.03-.05-.017-.068m.09-.221c-.013.02-.047.042-.068.02-.022-.02 0-.03-.026-.072.026.022.081.052.094.056m.068.03s.077.034.107.042c-.052.009-.039.026-.073.026-.034 0-.043-.043-.038-.068m2.007.221c0-.085-.09-.136-.367-.136s-1.12.102-1.12-.051c0-.098.285-.06.494-.051.008.017.03.03.06.038.353.102.724-.137.976-.051-.2-.183-.46.021-.725-.034.158 0 .32-.034.328-.073-.123.081-.464-.055-.61.039a.113.113 0 0 0-.025.02c-.26 0-.58-.033-.58.12 0 .273.96.115 1.194.115.234 0 .277.026.277.068 0 .064-.23.081-.358.081-.213 0-1.112-.115-1.47-.008.021-.06.106-.154.064-.2.034-.017.06-.039.06-.069a.13.13 0 0 0-.069-.034c.013-.017 0-.034-.017-.047-.004 0-.013-.042-.017-.046-.017-.009-.043-.035-.081-.056-.038-.017-.068-.017-.08-.021-.01 0-.048.008-.052.008-.017 0-.043 0-.047.022-.013-.017-.038-.026-.06-.026-.017.03-.02.055-.008.098-.034 0-.068.085-.098.077.013.025.021.034.03.034-.026.051-.039.106-.069.11a.094.094 0 0 0 .03.03.532.532 0 0 0-.008.086l-.03-.009h-.043a.217.217 0 0 1-.046-.008c-.043 0-.077-.073-.15-.115-.055-.034-.055-.06-.055-.115 0-.047.021-.09.021-.137l-.012-.042c-.009-.03-.052-.056-.073-.047a.066.066 0 0 1 .03.047c-.009.008-.021.02-.021.025-.009.013-.018.034 0 .047V17.424c0 .01-.005.005-.009 0-.013-.033-.03-.084-.06-.084h-.02v-.009c0-.034-.04-.064-.082-.021.009 0 .026 0 .034.013 0 .012-.008.034-.008.038 0 .034.025.051.064.051.008 0 .008 0 .012.009 0 .004 0 .012.005.012 0 .009 0 .009-.005.005-.06-.03-.09 0-.09.03v.025c-.02.017-.029.051.014.073 0-.009 0-.035.017-.039h.008c.009.009.017.013.017.017.005 0 .017 0 .034-.013h.017s.009.009.018.013v.013c-.043.038-.035.081.02.09.005 0 .01.004.01.012 0 .077-.107.06-.103-.017-.055.09.043.158.12.111h.008c.004.013.013.026.025.03 0-.004 0-.017.018-.017 0 0 .004 0 .004.008 0 .022.008.047.038.052-.004-.018 0-.03.009-.03.012 0 .068.106.179.166.02-.004.05-.004.064-.03 0 .009.012.017.025.026 0 .05.038.115.026.115-.017 0-.192-.009-.226.008-.051.03-.18.073-.213.021-.013-.017-.009-.034-.026-.06-.013-.02-.03-.033-.043-.033h-.03c-.02-.022-.067-.026-.085-.009.018 0 .035.005.052.034a.13.13 0 0 1-.017.026c-.009.017 0 .043.076.072 0 0 .013.009.005.009a.058.058 0 0 1-.047 0c-.03-.026-.034-.06-.073-.038 0 0-.013.008-.025.012h-.009c-.034 0-.09.043-.064.081.005-.013.017-.034.043-.038 0 .008.008.021.008.025.009.043.026.073.111.018.009-.005.009 0 .009.004-.022.034-.077.072-.034.098 0 0 .012.008.017.017v.008c-.009.047.042.081.068.081a.088.088 0 0 1-.026-.072c.013 0 .021.008.021.004.039-.013.022-.064.043-.077.009-.004.013 0 .013.005 0 .017.008.064.06.06.042 0 .068-.043.063-.069 0 0 0-.004.005 0 .017.009.03.026.021.051.009 0 .026-.017.034-.034a.07.07 0 0 1-.017.081.119.119 0 0 0 .077-.08c.008.008.013.016.017.025v-.005c.017.009.047.009.098 0 .004 0 .004 0 .004.005 0 .021 0 .038.004.05 0-.003.013-.025.022-.025.013 0 0 .047.025.073.013-.12.154-.06.23-.111.009-.004.009 0 .009 0a.1.1 0 0 1-.034.043.235.235 0 0 0 .102-.039l-.008.009.123-.056s.004-.025.004-.038c.018 0 .03-.004.043-.013.081.005.072-.06.102-.055.448.06.192-.192.716-.14.026 0 .039-.014.06-.03-.03.05-.03.136.025.144a.17.17 0 0 1 .09.039v.008a.184.184 0 0 0-.072.021c-.081.052-.086-.123-.17-.09-.005 0-.018.014-.027.018-.034 0-.08.043-.072.077a.078.078 0 0 1 .056-.034v.017c0 .017 0 .03.03.03.016 0 .02-.009.033-.009.005 0 .009.004.009.009 0 .034-.107-.018-.09.072l.018.03c0 .025.017.05.068.038-.009-.004-.03-.017-.026-.034h.021s.009 0 .009-.013c0 0 0-.004.004-.004 0 0 .009.004.009.009 0 .004-.005.008-.005.017 0 0 .005.025.009.03 0 .034.043.067.094.034-.013 0-.043-.01-.047-.026l.021-.009c.009-.004.009-.017.009-.034 0-.008.004-.008.008-.008h.021c.013 0 .013 0 .018.008.008.022.034.039.068.03.055-.021.008-.072.055-.08.009 0 .021-.005.034 0 .047.012.115.008.124-.014.013-.021.008-.106-.043-.132-.03-.012 0-.047-.025-.09a.419.419 0 0 0 .17.043c.124 0 .158-.02.213-.05.064-.04.132-.018.154-.018.017 0 .03.009.025.03-.017.064.009.072-.008.102-.013.026-.069.005-.103 0-.021 0-.038.017-.038.022-.034.004-.068.034-.068.072.013-.008.034-.025.055-.03v.013c.004.047.051.06.081.03.004-.004.017 0 .009.004-.026.021-.073.064-.034.077l.02.013c0 .025.018.055.043.06-.008-.014-.008-.026 0-.052h.022c.025 0 .017-.055.047-.072h.004c-.013.03-.017.072.013.08 0 0 .013 0 .021.005.009.026.038.043.077.021-.009 0-.03-.013-.034-.025a.096.096 0 0 0 .02-.03c.022-.068-.037-.068-.037-.094 0-.034.068-.013.068-.08 0-.01-.009-.035-.03-.044 0 0 .038.005.047-.02-.051 0-.034-.04-.043-.069V18c.013-.013.026-.034.021-.072-.017.025-.072.05-.076 0 0 0-.005-.039-.056-.026-.085.009-.14-.008-.298-.025.158-.009.443-.043.443-.15M18.72 19.279h-.005.005zm.05.221s.018-.034.03-.034c.018 0 .03 0 .035-.021.004-.021-.013-.03-.034-.043.021-.004.034-.017.021-.025-.013-.013-.03.008-.034 0-.004-.009.008-.017.017-.026.008-.004.017-.004.03 0l.085.043s.017.008.017.025c0 .009 0 .026-.004.03-.009 0-.009-.026-.026-.03-.013 0-.013.013 0 .034-.021-.008-.042-.017-.05 0-.01.017-.005.03.008.043.004.009 0 .021-.009.047-.009.017-.03.047-.06.03a.053.053 0 0 1-.02-.069m.097-.23c-.013.026-.043.047-.068.022-.021-.026 0-.03-.026-.073a.346.346 0 0 0 .094.051zm.064.039s.077.034.107.042c-.052.009-.039.03-.069.03-.034 0-.047-.043-.038-.072zm1.982.507v-.009c.017-.012.03-.034.03-.072-.018.025-.077.051-.077 0 0 0 0-.034-.051-.026-.086.009-.162-.008-.32-.021-.009 0-.017-.009 0-.013.158-.013.447-.034.447-.136 0-.085-.093-.136-.366-.136s-1.117.098-1.117-.056c0-.098.282-.055.495-.051a.11.11 0 0 0 .06.038c.353.102.758-.162.971-.102-.277-.098-.452.072-.72.017.157 0 .324-.034.328-.077-.124.077-.465-.055-.61.039-.008.004-.016.012-.025.021-.26 0-.575-.034-.575.12 0 .272.959.114 1.189.114.23 0 .28.026.28.069 0 .063-.23.08-.357.08-.217 0-1.112-.119-1.47-.008.021-.06.106-.153.068-.2.034-.017.055-.039.06-.073-.022-.021-.043-.025-.069-.03.013-.017 0-.034-.017-.046 0 0-.008-.043-.02-.047a.313.313 0 0 0-.082-.056c-.038-.021-.064-.017-.08-.021-.01 0-.048.008-.052.008-.017 0-.043 0-.047.022a.127.127 0 0 0-.064-.03.148.148 0 0 0-.008.098c-.034 0-.069.081-.098.072.012.026.021.035.03.035-.026.046-.039.106-.069.11.022.026.034.039.047.043 0 .03-.008.055-.008.08l-.047-.016h-.043a.15.15 0 0 1-.042-.009c-.043-.004-.077-.072-.15-.115-.055-.03-.055-.055-.055-.115 0-.047.021-.09.021-.132 0-.004-.008-.03-.012-.043-.009-.03-.047-.055-.073-.046a.065.065 0 0 1 .03.046.313.313 0 0 0-.021.026c-.009.013-.013.03 0 .047.004 0 .004.008.004.008 0 .005 0 .013-.004.022 0 .008-.005 0-.005 0-.008-.034-.03-.081-.06-.085h-.025v-.009c0-.034-.038-.064-.08-.021.008 0 .029 0 .033.017 0 .013-.008.034-.008.034 0 .034.025.051.06.051.008 0 .012.004.012.008 0 0 0 .009.004.018 0 .008 0 .004-.004 0-.06-.03-.09 0-.09.03v.025c-.02.017-.025.051.014.072 0-.008 0-.034.012-.038h.009c.004.004.013.013.017.013.004 0 .013 0 .038-.013h.017s.009.009.017.013c.005 0 .005.008 0 .013-.042.042-.038.08.022.093.004 0 .008.005.008.013-.004.077-.106.064-.102-.017-.056.09.042.158.12.11h.008c.004.014.012.03.025.03 0 0 .005-.016.017-.016.005 0 .005 0 .005.008 0 .021.008.047.038.051 0-.017 0-.03.008-.03.013 0 .064.111.18.175 0-.008.042-.025.063-.042.005.02.017.042.039.05l.017-.008c-.009.051.055.107.042.107-.017 0-.119-.013-.157.004-.052.03-.18.072-.218.021-.012-.021-.008-.034-.025-.064-.013-.02-.03-.034-.043-.034h-.03c-.021-.021-.068-.025-.085-.008.013 0 .03.004.047.034 0 .008-.013.021-.013.026-.008.017-.004.046.077.072 0 0 .013.008.004.013-.013.004-.03.008-.047-.009-.03-.021-.034-.06-.072-.038 0 0-.013.008-.026.013h-.008c-.034 0-.09.042-.064.085 0-.013.017-.034.042-.038 0 .008.009.02.009.025.009.043.026.073.11.017h.005c-.017.034-.077.073-.034.098 0 0 .013.009.017.017v.009c-.004.047.043.08.068.08a.082.082 0 0 1-.025-.072c.012 0 .02.009.025.009.038-.017.021-.064.047-.081.004 0 .009 0 .013.004 0 .021.013.064.06.06.046 0 .068-.043.06-.068 0-.005 0-.005.003-.005.017.009.03.03.022.051a.086.086 0 0 0 .034-.034c.008.022.008.051-.021.085a.105.105 0 0 0 .076-.08c.009.008.017.017.017.025v-.004c.017.008.047.008.094 0 .004 0 .008 0 .004.004 0 .017 0 .039.005.047 0-.004.012-.026.02-.026.014 0 0 .047.026.077.013-.123.077-.072.154-.123.008-.005.008 0 .008.004a.073.073 0 0 1-.034.038c.03.021.14-.047.14-.094 0-.012.043-.017.082-.02.077.003.068-.06.098-.056.451.06.192-.192.72-.14.026 0 .038-.03.06-.052-.026.051-.03.153.025.166.022 0 .073.017.09.038.004.005 0 .009 0 .009-.03 0-.064.013-.077.017-.08.055-.08-.123-.17-.09-.005 0-.022.013-.026.022-.034 0-.081.043-.077.077.013-.013.03-.03.056-.035v.017s0 .03.034.03c.017 0 .021-.008.034-.008.004 0 .008 0 .008.008 0 .034-.106-.017-.09.073 0 0 .014.021.018.03-.004.025.017.055.064.038-.009-.008-.026-.021-.021-.034h.02c.005 0 .01 0 .014-.013 0 0 0-.004.004 0 .004 0 .008 0 .008.009 0 .004-.008.008-.008.017 0 0 0 .025.008.03-.004.034.043.068.09.034-.013 0-.043-.009-.047-.022a.07.07 0 0 0 .026-.012c.008-.005.008-.017.008-.035 0-.008 0-.008.009-.008h.025c.013 0 .013 0 .017.004.013.021.034.038.069.026.06-.022.008-.069.055-.081h.034c.047.013.11.008.123-.013.013-.021.005-.102-.042-.132-.03-.013 0-.051-.026-.094.052.021.103.043.17.043.129 0 .167-.017.227-.051.064-.039.132-.017.153-.017.013 0 .026.008.021.03-.02.063 0 .072-.017.102-.012.025-.068 0-.106 0-.017 0-.039.017-.039.017-.034.004-.072.034-.072.068.013-.009.034-.026.06-.03v.013c0 .043.047.06.076.03 0-.005.017 0 .009.004-.03.021-.077.06-.038.077l.02.012c-.003.026.014.056.035.06-.009-.017-.009-.026.009-.055h.02c.03 0 .022-.056.052-.073h.004c-.013.034-.021.073.004.081 0 0 .013.005.022.005.008.025.034.042.072.02-.008-.003-.025-.012-.03-.025.009-.013.022-.025.022-.03.025-.068-.03-.068-.03-.093 0-.035.064-.013.072-.081 0-.009 0-.03-.025-.039v-.004s.038.004.05-.021c-.05 0-.033-.039-.038-.068M18.933 20.595c-.03 0-.043-.042-.034-.068a.387.387 0 0 0 .102.043c-.047.008-.034.03-.064.025m-.051.06s-.009-.026-.021-.026c-.013 0-.013.009 0 .03-.022-.008-.039-.017-.047 0-.009.017-.005.026.008.043.009.008 0 .021-.004.042-.009.018-.03.043-.06.03-.03-.017-.025-.047-.017-.064.009-.017.017-.03.026-.03.017 0 .03 0 .034-.02.008-.022-.013-.03-.03-.043.021-.005.03-.013.021-.022-.012-.012-.03.009-.034 0 0-.008.009-.017.017-.02.009-.01.013-.01.026 0l.085.037s.017.009.013.022c0 .008.004.025-.004.025m-.064-.166c-.017.021-.043.043-.064.021-.021-.02 0-.03-.021-.072a.513.513 0 0 0 .089.051m.848.021s.026.035.06.043c.336.098.72-.158.924-.098-.264-.094-.43.068-.686.017.15 0 .307-.034.316-.072-.115.076-.443-.047-.58.038-.008.004-.013.009-.021.017-.183-.004-.337-.004-.337.115 0 .26.699.107.92.107.222 0 .192.02.192.063 0 .064-.251.077-.375.077-.187 0-.762-.098-1.108-.03.026-.055.09-.127.056-.17a.09.09 0 0 0 .055-.068.126.126 0 0 0-.064-.03c.009-.017 0-.034-.013-.047 0 0-.008-.038-.017-.043a.26.26 0 0 0-.076-.05c-.039-.022-.064-.022-.077-.022-.009 0-.043.008-.047.004-.017 0-.038 0-.042.022-.017-.018-.039-.022-.06-.026-.013.03-.021.051-.009.094-.03 0-.064.08-.09.072a.06.06 0 0 0 .03.034c-.025.047-.038.103-.063.107.008.013.017.021.025.03-.008.034-.017.068-.017.098l-.03-.009h-.012c-.043-.004-.064 0-.137-.038-.05-.03-.055-.056-.055-.107 0-.047.021-.085.017-.128a.391.391 0 0 0-.013-.042c-.008-.026-.047-.051-.072-.043a.065.065 0 0 1 .03.043c-.009.013-.017.021-.022.025-.008.013-.017.03 0 .047v.03c0 .009-.004 0-.008 0-.013-.034-.026-.08-.056-.08h-.02v-.005c0-.034-.035-.06-.078-.021.009 0 .026.004.03.012 0 .013-.008.03-.008.034 0 .035.025.047.06.047.004 0 .008 0 .012.009v.013c0 .008 0 .004-.004 0-.06-.026-.081 0-.085.03v.025c-.022.013-.03.047.012.068 0-.008 0-.03.013-.034 0 0 .004 0 .009-.004.004.008.012.013.017.017.004 0 .012 0 .034-.013.004-.004.008-.004.013 0l.017.013c.004 0 0 .004 0 .008-.039.039-.034.077.017.086.008 0 .008.008.008.012-.004.073-.102.06-.098-.012-.05.085.043.149.115.106 0-.004.005 0 .009 0 .004.013.013.026.025.03 0-.004.005-.017.017-.017.005 0 .005 0 .005.009 0 .017.008.042.034.046-.005-.012 0-.03.008-.03.013 0 .013-.034.103.018.004.017.017.025.034.034l.064-.013c-.009.051.008.128 0 .128-.018 0-.116-.013-.15.008-.046.026-.17.073-.204.021-.013-.017-.009-.034-.021-.06-.013-.016-.03-.029-.039-.029h-.03c-.02-.021-.063-.026-.08-.009.017 0 .034.01.046.03-.004.009-.008.022-.012.026-.009.017-.005.042.072.068 0 0 .008.009 0 .013-.013.004-.026.008-.043-.004-.03-.026-.034-.056-.068-.035l-.025.01h-.009c-.034 0-.08.037-.06.076 0-.009.018-.03.043-.034 0 .008.009.017.009.021.008.043.025.072.102.017.008-.004.008 0 .008.004-.02.034-.072.069-.03.094 0 0 .01.009.018.013l-.005.008c-.004.043.043.077.069.073-.013-.009-.03-.034-.026-.068.013 0 .021.008.026.008.038-.017.017-.06.042-.077h.009c0 .018.012.06.06.06.042-.004.063-.043.059-.064 0 0 0-.004.004 0a.05.05 0 0 1 .021.051.086.086 0 0 0 .035-.034.07.07 0 0 1-.017.081c.017-.004.064-.03.072-.076.009.004.013.017.017.025h.004a.2.2 0 0 0 .09 0h.004c-.004.017-.004.038.004.047 0-.009.013-.026.017-.026.013 0 0 .047.026.073.008-.115.102-.085.175-.132.008-.005.008 0 .008 0a.08.08 0 0 1-.03.038c.077.047.158-.06.184-.115a.052.052 0 0 0 .02-.021c.005.012.01.021-.012.034.077.004.068-.056.098-.051.23.017.056-.192.418-.128a.185.185 0 0 0 .09-.039c-.026.047-.03.15.02.158a.19.19 0 0 1 .086.034c.004.005 0 .009 0 .009a.15.15 0 0 0-.073.017c-.076.05-.08-.115-.162-.085-.004 0-.017.008-.02.017-.035 0-.078.038-.073.072.008-.008.025-.026.055-.03v.017c0 .013 0 .026.03.026.021 0 .021-.009.034-.009.004 0 .009 0 .009.009 0 .03-.103-.017-.086.068 0 0 .009.021.017.026 0 .025.017.055.064.038-.008-.004-.025-.017-.021-.03h.021s.009 0 .009-.013c0-.004 0-.004.004-.004a.01.01 0 0 1 .009.009c0 .004-.005.008-.005.017 0 0 0 .025.009.03-.005.03.042.063.09.034-.014 0-.043-.009-.048-.026.009 0 .022-.009.022-.009.008-.004.008-.017.008-.03 0-.008.005-.008.009-.008h.021c.009 0 .013 0 .017.004a.047.047 0 0 0 .064.026c.055-.021.009-.068.051-.077.009 0 .021-.004.034 0 .043.009.107.009.12-.013.012-.02.008-.102-.043-.127-.026-.013 0-.047-.021-.09a.378.378 0 0 0 .162.043c.119 0 .174-.017.234-.051.068-.039.132-.018.15-.018.012 0 .025.01.012.03-.026.06-.013.069-.03.094-.021.026-.064.009-.102 0-.017 0-.039.013-.039.017-.034.009-.076.039-.08.068a.13.13 0 0 1 .06-.03v.013c-.01.043.033.056.067.026.005-.004.017 0 .009.008-.03.022-.085.06-.051.077 0 0 .013.004.021.009-.008.025 0 .05.021.055 0-.013 0-.021.017-.051h.022c.025 0 .03-.055.064-.073h.004c-.017.03-.034.069-.009.077 0 0 .013 0 .022.004 0 .026.03.039.068.022-.009 0-.026-.013-.026-.026.013-.008.026-.025.026-.03.034-.064-.021-.064-.013-.093.009-.035.064-.009.085-.077 0-.013 0-.034-.017-.038 0 0 .034.004.051-.022-.047.005-.02-.034-.02-.06v-.012a.09.09 0 0 0 .037-.068c-.02.02-.076.046-.072 0 0 0 .008-.034-.043-.026-.08.009-.196-.008-.345-.021-.008 0-.017-.009 0-.013.15-.009.456-.034.456-.132 0-.081-.017-.132-.277-.132s-.848.098-.848-.051c0-.073.115-.064.252-.06M18.626 21.92s.017-.03.025-.03c.018 0 .026 0 .03-.016.009-.021-.008-.03-.03-.038.018-.01.03-.013.018-.026-.013-.009-.03.004-.035 0-.004-.009.009-.017.013-.021.009-.009.017 0 .026 0l.077.038s.017.008.017.021c0 .009 0 .022-.005.026-.008 0-.004-.026-.021-.026-.013 0-.013.009-.004.026-.022-.004-.034-.017-.047 0-.009.017-.004.025.008.038.005.009 0 .021-.008.039-.009.017-.03.042-.056.03a.042.042 0 0 1-.017-.06m.103-.196s-.043.038-.064.017c-.021-.022 0-.026-.026-.064a.355.355 0 0 0 .085.047m.064.03s.069.034.098.038c-.042.008-.034.025-.064.025-.025 0-.038-.038-.034-.064zm.631-.03s.026.034.06.042c.336.094.72-.157.924-.098-.264-.093-.434.069-.69.017.15 0 .307-.03.315-.068-.115.077-.443-.051-.58.034l-.025.026c-.102.021-.192.076-.192.153 0 .222.861.047.861.12 0 .06-.17.115-.396.115-.17 0-.469-.115-.84-.022.026-.068.107-.162.069-.204.034-.013.05-.039.05-.06a.114.114 0 0 0-.059-.03c.009-.017 0-.03-.017-.047 0 0-.008-.034-.017-.042a.258.258 0 0 0-.072-.047c-.034-.017-.06-.017-.077-.021-.009 0-.038.008-.043.008-.017 0-.038 0-.042.017a.112.112 0 0 0-.056-.025c-.012.03-.021.05-.008.09-.03 0-.06.076-.09.067.009.021.022.03.03.03-.025.047-.034.098-.064.098a.094.094 0 0 0 .03.03.712.712 0 0 0-.017.209c-.051-.056-.132-.18-.183-.21-.051-.029-.051-.055-.051-.101 0-.043.02-.081.017-.12 0-.004-.009-.025-.013-.038-.009-.026-.043-.047-.064-.043.013.009.025.017.025.043-.008.009-.017.021-.02.021-.01.013-.014.03 0 .043v.03c0 .008 0 .004-.005 0-.009-.03-.026-.077-.051-.077h-.021v-.008c0-.03-.035-.056-.073-.018.009 0 .026 0 .03.013 0 .009-.009.03-.009.034 0 .03.022.043.056.043.004 0 .008 0 .008.004 0 .005 0 .009.005.013 0 .009 0 .004-.005 0-.06-.021-.08 0-.085.026v.025c-.021.013-.025.043.013.068 0-.012 0-.03.013-.034h.008l.013.013s.013 0 .034-.013h.009c.004 0 .012.009.017.013.004 0 0 .008 0 .008-.039.039-.03.073.017.081.008 0 .008.005.008.009-.004.068-.098.055-.094-.013-.05.081.039.14.107.103.004-.005.008 0 .008 0 0 .012.009.02.022.025 0 0 0-.013.013-.017.004 0 .008 0 .008.009 0 .017.004.042.034.046-.004-.012 0-.03.009-.03.012 0 0 .107.098.167a.11.11 0 0 0 .12.085c.016.043.042.081.033.081-.013 0-.132-.013-.166 0-.026.013-.068.034-.11.038l-.01.009s0-.004.005-.009c-.034.005-.064 0-.081-.017-.013-.017-.009-.034-.021-.06-.013-.016-.026-.03-.039-.03h-.03c-.017-.016-.06-.02-.076-.008.013 0 .03.009.042.03 0 .009-.008.021-.008.026-.009.017 0 .038.068.064 0 0 .013.008 0 .008-.013.004-.026.009-.038 0-.03-.021-.034-.055-.068-.034 0 0-.013.009-.022.009h-.008c-.03 0-.081.038-.056.076 0-.008.017-.03.039-.034 0 .009.008.021.008.021 0 .039.021.069.094.018.008-.005.008 0 .004.008-.017.03-.068.06-.03.085l.017.009v.008c-.008.043.039.073.064.073-.008-.013-.03-.034-.021-.064.009 0 .021.008.021.004.034-.013.017-.06.039-.072.004 0 .008 0 .008.004 0 .017.013.06.055.055.043 0 .06-.038.056-.06.013.01.025.026.021.047.009 0 .022-.017.03-.03.009.018.013.048-.017.073.017 0 .06-.025.068-.072a.09.09 0 0 1 .017.025c.013.009.043.009.085 0 .005 0 .009 0 .009.005-.004.017-.004.034 0 .042 0 0 .013-.021.017-.021.013 0 0 .042.026.068.008-.107.068-.064.136-.11.008 0 .008 0 .008.003a.057.057 0 0 1-.03.035c.026 0 .103-.035.103-.073 0-.017.051-.06.064-.187h.03c.09-.009.132-.073.226-.077-.022.025-.03.09-.03.132 0 .051.064.107.085.12v.008a.17.17 0 0 0-.068.017c-.077.051-.077-.11-.154-.081-.004 0-.017.013-.02.017-.035 0-.073.034-.07.068a.095.095 0 0 1 .052-.03v.017s0 .026.03.026c.017 0 .017-.009.03-.009.004 0 .012 0 .012.009 0 .03-.098-.017-.08.064l.012.025c0 .026.017.052.06.035-.009-.009-.026-.018-.021-.03h.02c.005 0 .01 0 .014-.013.004 0 .008 0 .008.008 0 .009-.008.009-.004.017 0 0 .004.022.008.026-.004.03.039.06.086.03-.013 0-.039-.004-.043-.021a.053.053 0 0 0 .021-.009c.009-.004.009-.017.009-.03 0-.008 0-.008.008-.008h.022c.008 0 .013 0 .013.008.008.017.034.034.06.022.05-.018.008-.064.05-.073h.03c.043.013.073.017.085 0 .009-.017.005-.094-.038-.12-.026-.012.038-.178-.09-.255.06.013.252.043.282-.004a.34.34 0 0 1 .132.064c.009.013.013.025-.004.034-.051.03-.043.047-.068.06h-.005s-.034-.039-.05-.047c-.018-.013-.04 0-.04 0-.025-.009-.067 0-.08.03.013 0 .034-.01.06 0v.012c0 .009 0 .017.012.026h.005s0 .008-.005.008c-.03-.004-.085-.008-.072.026 0 0 0 .013.004.021-.021.017-.026.047-.013.064 0-.013.009-.021.034-.03.005.009.013.013.013.017.017.017.047-.03.077-.017 0 0 .004 0 0 .005-.03.012-.056.03-.047.055 0 0 .004.013.008.017-.008.021 0 .051.035.064 0-.009-.009-.03 0-.038h.03c.06-.03.02-.069.042-.086.021-.021.047.034.094-.008.008-.004.017-.021.008-.043v-.004s.022.03.043.017c-.034-.03 0-.043.017-.068 0 0 .004-.009.009 0 .017 0 .038 0 .06-.03-.026.004-.09-.034-.052-.047.055-.021.068-.051.043-.08-.047-.06-.141-.065-.141-.133h.085c.29 0 .477-.08.469-.17-.009-.197-.878.017-.878-.128 0-.043.051-.077.12-.098M5.33 6.575a.214.214 0 0 0-.213-.213.207.207 0 0 0-.209.213c0 .12.094.21.21.21a.213.213 0 0 0 .212-.21zM5.258 6.017a.21.21 0 0 0-.213-.209.21.21 0 0 0 0 .418.213.213 0 0 0 .213-.209zM5.377 5.766a.213.213 0 0 0 .213-.21.214.214 0 0 0-.213-.212.207.207 0 0 0-.209.213c0 .12.094.209.21.209zM5.94 5.732a.213.213 0 0 0 .213-.21.214.214 0 0 0-.213-.212.21.21 0 0 0-.21.213.21.21 0 0 0 .21.209zM8.33 5.34a.214.214 0 0 0 .299 0 .214.214 0 0 0 0-.299.214.214 0 0 0-.299 0 .214.214 0 0 0 0 .299zM8.283 4.892a.214.214 0 0 0 0-.298.214.214 0 0 0-.298 0 .214.214 0 0 0 0 .298.214.214 0 0 0 .298 0zM7.725 4.798a.214.214 0 0 0 0-.298.206.206 0 0 0-.298 0 .214.214 0 0 0 0 .298.214.214 0 0 0 .298 0zM7.248 5.156a.214.214 0 0 0 0-.298.214.214 0 0 0-.298 0 .214.214 0 0 0 0 .298.214.214 0 0 0 .298 0zM5.906 4.867l.17.366.213-.256s.017.009.026.009c.017.123.025.336.025.46 0 .15.12.269.269.269.149 0 .268-.12.268-.269a.275.275 0 0 0-.145-.239 2.043 2.043 0 0 1-.294-.277.293.293 0 0 0 .013-.034l.358.03-.14-.38-.27.227-.012-.009-.021-.392-.37.14.246.29-.017.03-.324.026.005.009zM8.347 5.519c.081.127.111.187.115.29-.063-.026-.136-.09-.217-.201l.043.49c.06-.085.106-.15.174-.179-.017.32-.144.452-.255.473a.207.207 0 0 1-.252-.162c-.025-.14.098-.23.222-.102.021-.294-.213-.29-.32-.166.124-.286.073-.473-.179-.627-.157.264-.09.44.111.644-.196-.098-.37.068-.196.285.038-.187.2-.145.239 0 .034.128-.09.294-.303.358-.302.094-.4-.102-.473-.264.064-.043.222-.03.397.081l-.145-.482a.495.495 0 0 1-.29.29c-.009-.14.094-.422.094-.422l-.58.235s.269.128.362.234a.475.475 0 0 1-.409-.008l.23.447c.047-.2.145-.32.226-.332.06.17.128.375-.153.52-.196.102-.397.068-.465-.047-.076-.132.009-.282.166-.17-.025-.278-.268-.274-.336-.065 0-.285-.073-.456-.371-.537-.072.286.021.456.311.576-.162-.017-.337.144-.11.34 0-.178.148-.2.23-.08a.203.203 0 0 1-.069.29c-.093.059-.277.055-.511-.163a.445.445 0 0 1 .247.005l-.311-.384a.603.603 0 0 1-.017.294c-.068-.077-.09-.14-.12-.29l-.238.213c.226.137.481.35.797.785.328-.205.92-.49 1.287-.64.366-.149.988-.358 1.368-.439-.077-.528-.043-.86.021-1.116l-.315.013-.005.013zM9.012 8.31c-.294.23-.686.021-.86-.282.404-.166.873-.353 1.188-.55-.294.448-.093.648-.328.832zm-.068 3.06c-.38.166-.673-.171-.746-.397-.072-.23-.136-.418-.047-.503.167-.162.218-.29.115-.49-.115-.234-.362-.123-.626-.055.124-.222.132-.38-.034-.362-.2.02-.205.349-.315.31-.111-.038-.047-.225-.047-.327 0-.137.09-.188.23-.248l1.1-.417c.14-.051.238-.077.336.021.072.073.247.162.192.269-.056.106-.282-.128-.444 0-.136.102-.017.208.226.28-.234.141-.49.23-.409.478.068.213.192.264.422.268.124 0 .213.18.315.393.107.213.137.605-.268.78zM6.856 9.152c-.294.026-.29-.255-.805-.379.366-.072.835-.26 1.244-.413.077.34-.064.763-.435.797m6.107 9.767c.085-.226-.333-.482-.38-.806-.046-.323-.008-.63-.379-1.065-.362-.422-1.623-1.773-2.003-2.199.094-.008.32-.06.554.158.137.128.405.383.657.63a6.811 6.811 0 0 1 1.338-2.147c.076-.085.153-.166.23-.247-.217.064-.55.115-.746.247-.013-.37.013-.67-.239-.904.098-.515.013-1.142-1.15-1.913.592.14.946.682 1.398.268-.41-.012-.418-.899-1.888-1.64.562-.013 1.001.895 1.653.38-.613-.073-.818-1.164-1.922-1.5.384.042.78.23 1.108-.214-.383.09-.61-.264-1.018-.294.153-.477.115-.771-.047-1.13-.29.022-.584.107-.797.282-.034-.264-.307-.277-.55-.26.013.115.069.277-.06.303-.2.038-.856.213-1.363.409-.507.196-1.087.558-1.257.673-.102.072-.192-.098-.256-.175-.179.154-.353.35-.221.55-.282.026-.593.098-.857.307 0 .328.273.648.678.822-.682.678-.064 1.304-.665 1.897.844.03.699-1.147 1.125-1.309-.043.827-.507.976-.507 1.867 0 .477.285.993.03 1.308.707-.196.52-1.756.963-2.229.076.269.03.529-.06.797-.247.729.026 1.726-.358 2.05.72-.072.805-1.227 1.402-1.653-.511 1.044-1.035 3.26-1.794 4.372-1.232 1.658-1.952 3.682-3.081 3.682-.499 0-.874-.303-.874-.934 0-1.887 3.235-3.183 3.235-5.19 0-.895-.729-1.236-1.185-1.236-.307 0-.682.154-.989.41a1.141 1.141 0 0 0-.383-.086c-1.142 0-.84 2.054-1.837 2.037.392.222 1.078-.209 1.475-.784-.166 1.334-2.084.976-1.94 2.578.27-1.253 3.325-1.07 3.325-2.97 0-.217-.111-.392-.26-.537a1.2 1.2 0 0 1 .647-.2c.367 0 .7.272.7.81 0 1.683-3.218 3.102-3.218 5.173 0 .35.102.639.264.869-.226.098-.46.051-.652-.175-.017.533.742.87 1.223.601.107.038.218.06.333.068-.145.397-.635.516-.895.495.788.622 2.165-.192 2.088-.895.626-.503 1.023-1.368 1.474-1.94-.03.133-.05.265-.072.393-.46.84-.895 1.59-1.014 2.693-.103.925-.567 1.756-1.22 1.756-.14 0-.374-.183-.485-.094-.2.175-.008.354-.008.529 0 .264-.508.524-.508 1.338 0 .366.213.805.133 1.044.208-.107.481-.452.596-.904.222 1.07-.456 1.027.034 1.977.06-.315.375-.443.567-.315.192.132.102.226-.038.367-.145.14-.273.852.375.81-.124-.082-.128-.27.191-.337.448-.09.58.115 1.057.115.294 0 .375-.384.61-.384.234 0 .234.183.153.316.375-.103.447-.303.447-.516 0-.213-.17-.345-.038-.426.132-.081.567.008.396.362.226-.038.346-.205.346-.477 0-.273-.316-.435-.61-.384-.05-.175-.307-.264-.537-.264-.528 0-.443.418-.81.418-.579 0-1.137-.755-1.137-2.02 0-.678.729-.853 1.248-1.074.516-.222 1.424-.78 1.97-1.692.425-.712.438-1.496.383-2.42.728.417.814 1.018.814 1.457 0 .567-.294.797-.525.903-.196.09-.264.056-.28.17-.026.146.072.23.157.274.264.136.209.387.281.66.073.273.316.703.725 1.018.042-.17.03-.438.008-.792.563.277.11 1.402 1.202 1.402-.2-.115-.15-.41-.034-.452.115-.042.26.073.473.367.209.294.153.272.669.272.515 0 .281-.179.554-.179s.251.316.106.546c.46-.14.597-.486.444-.848.404-.218.617.09.677.311.4-.396 0-.882-.315-.912.008-.15-.128-.303-.294-.315a4.039 4.039 0 0 0-.512-.013c-.187.013-.294.285-.515.285-.682 0-2.033-1.235-2.033-1.772 0-.537 1.291-.861 1.291-1.688 0-1.082-1.065-1.453-1.964-2.148.32-.358 1.253-.443 1.781-.183.06-.302.256-.226.324-.746.192.456-.009.853.187 1.049.15-.222.537-.188.512-.755.119.354-.15.9.119 1.134.047-.29.222-.35.332-.35.111 0 .205.082.205.252 0 .435-.533.23-.533.72 0 .205.26.277.26.41 0 .131-.213.336-.473.165.085.188.26.354.482.354.234 0 .49-.192.588-.435.123.311.03.657-.192.7.234.114.797.008.729-.712.315.05.481.264.294.647.26-.064.498-.191.498-.468 0-.213-.23-.277-.127-.554M33.81 24.12a.677.677 0 1 1 1.352-.003.677.677 0 0 1-1.353.003zm-.23 0a.908.908 0 1 0 .912-.908.915.915 0 0 0-.913.908zM30.596 25.769c-.26-.047-.443-.243-.409-.43a.287.287 0 0 1 .128-.188c.107-.073.256-.098.405-.073.234.043.413.213.413.384v.047c-.034.192-.273.307-.532.26m-.414-.81a.546.546 0 0 0-.226.337c-.03.157.022.32.14.456a.822.822 0 0 0 .967.175.54.54 0 0 0 .291-.38c.06-.315-.209-.63-.597-.699a.761.761 0 0 0-.575.111zM25.129 12.737c0-.119.072-.255.192-.35a.489.489 0 0 1 .345-.106c.05.005.12.03.17.09a.253.253 0 0 1 .047.187.474.474 0 0 1-.192.307c-.179.136-.413.145-.515.017a.258.258 0 0 1-.047-.149m.051-.528c-.285.221-.366.588-.183.822.179.235.558.243.84.026a.705.705 0 0 0 .276-.46.494.494 0 0 0-.093-.363.485.485 0 0 0-.324-.179.707.707 0 0 0-.52.154M29.471 24.482a.29.29 0 0 1-.204-.094.547.547 0 0 1-.137-.388c0-.153.06-.29.15-.379a.282.282 0 0 1 .208-.09c.192 0 .346.222.341.486 0 .15-.055.29-.149.38a.277.277 0 0 1-.204.085m-.358-1.031a.783.783 0 0 0-.222.545v.017c0 .209.072.405.204.537a.5.5 0 0 0 .367.166.536.536 0 0 0 .375-.153.784.784 0 0 0 .222-.546.822.822 0 0 0-.154-.494.566.566 0 0 0-.417-.23.528.528 0 0 0-.375.153M24.852 16.994c-.239-.115-.362-.349-.277-.524a.274.274 0 0 1 .17-.144.535.535 0 0 1 .41.038.54.54 0 0 1 .285.298.296.296 0 0 1-.004.226.288.288 0 0 1-.17.145.535.535 0 0 1-.41-.039m-.187-.89a.556.556 0 0 0-.307.264c-.14.29.034.665.388.835a.77.77 0 0 0 .588.047.527.527 0 0 0 .306-.264.53.53 0 0 0 .018-.405.796.796 0 0 0-.405-.43.77.77 0 0 0-.588-.047z" fill="#1C1C1B"/>
    <path d="M31.257 20.242c-.15.209-.405.285-.567.166-.166-.12-.179-.384-.03-.592.15-.21.405-.286.567-.167.166.115.179.384.03.593zm-1.07 1.691c-.149.21-.405.286-.57.17-.167-.114-.18-.378-.03-.591.144-.21.4-.286.566-.17.166.119.18.383.03.591m-3.67-9.26c.129-.396.367-1.176.367-1.176l.414.162c-.12.047-.269.162-.397.281.094.043.26.047.375-.03l-.166.414c-.038-.064-.153-.217-.268-.243-.085.333.123.456.277.537.251.128.413.15.486.034.08-.145-.086-.34-.299-.251-.021-.218.098-.333.243-.333.115 0 .205.103.234.243-.012-.35.145-.626.47-.724.119.34.02.57-.235.818.136-.055.29-.047.354.047.076.12.05.285-.141.388-.043-.226-.307-.243-.38-.098-.072.144.039.28.273.409.269.149.486.06.631-.175-.09-.03-.243-.013-.388.077l.273-.516c.013.077.06.205.175.303.042-.115.102-.32.017-.499l.592.34c-.2.018-.345.171-.422.265.14.051.277.026.35 0l-.307.495c.004-.171-.056-.312-.124-.376-.132.243-.098.474.162.631.23.136.405.166.49.03.09-.14-.055-.354-.272-.281-.009-.218.119-.324.26-.316.115.009.2.137.221.282.085-.345.234-.546.592-.614.073.332-.085.605-.396.771.14-.047.273-.017.328.081.073.124.034.286-.166.375-.03-.23-.285-.272-.366-.132-.064.12.034.252.272.405.145.094.354.213.601-.026-.08-.089-.268-.115-.345-.115l.277-.349a.428.428 0 0 0 .162.337c.043-.17.064-.354.047-.482l.345.277s-.558.597-.835.903l-3.767-2.173-.013.004zm4.45 5.054c0-.06.017-.144.085-.208a.306.306 0 0 1 .213-.077c.128 0 .264.072.37.179.103.11.163.251.159.384 0 .06-.018.14-.086.204a.307.307 0 0 1-.213.077.537.537 0 0 1-.37-.18.555.555 0 0 1-.158-.379zm1.632 7.483a.543.543 0 0 1 .243-.332.539.539 0 0 1 .4-.09c.06.013.141.047.192.124a.31.31 0 0 1 .038.222.544.544 0 0 1-.242.332c-.222.145-.486.128-.593-.03a.31.31 0 0 1-.038-.221M24.843 13.93a.474.474 0 0 1-.14.32.243.243 0 0 1-.175.067c-.153-.008-.273-.183-.273-.387v-.03a.456.456 0 0 1 .14-.32.244.244 0 0 1 .176-.068.245.245 0 0 1 .166.09c.072.08.11.204.102.332m2.404-4.926c.127-.243 0-.614.443-.614.217 0 .413.217.677.303-.426.034-.814.132-1.12.31zm6.98 6.162c.294.81.882 1.103 1.334.895-1.006-.116-.192-1.833-1.483-1.833-.073 0-.145.009-.21.021-.22-.23-.468-.328-.839-.328-.55 0-1.487.529-1.487 1.615 0 2.344 2.723 2.553 2.723 4.624a.95.95 0 0 1-.967.984c-.456 0-.827-.515-1.21-1.32-.184-.384-.58-.908-1.002-1.454.124.09.264.14.405.14a.521.521 0 0 0 .38-.136.51.51 0 0 0 .157-.366v-.021a.8.8 0 0 0-.222-.529.766.766 0 0 0-.532-.251.54.54 0 0 0-.38.136.502.502 0 0 0-.157.367v.021c0 .08.012.162.042.239-.588-.767-1.133-1.517-1.133-1.93 0-.363.251-.683.562-1.066l.107.06.08-.09c.112-.12.337-.37.81-.874l.03-.03.115-.119-.294-.234c.077-.175.145-.367.196-.575.09.375.286.617.55.54-.179-.391.179-.911-.055-1.866.221.367.54.563.775.495-.605-.537.18-1.283-.605-2.438.26.085.426.038.541-.09-.716-.097-.388-1.014-1.649-1.342.311-.055.499-.238.452-.405-.333.24-.622-.447-1.713-.43-.064-.41-.444-.835-.874-1.044.081.315.004.6-.077.835L25.04 3.886c-.102-.098-.162-.119-.191-.085-.03.034-.026.102.038.17l3.051 3.827c-.23.081-.456.175-.69.26a.415.415 0 0 0-.264.397c-.567.28-1.061.63-1.309.852-.187.17-.336.213-.17.596.064.145-.132.508.311.243.29-.174.946-.537 1.044-.306.051.119-.273.272-.494.357-.222.086-.465.26-.43.346.033.085.212-.005.22.085.014.102.086.192.171.192.086 0 .205-.188.273-.124.073.064-.034.477-.107.584.346-.043.567-.375.58-.627.009-.26.077-.32.132-.353.056-.034.115.272.043.46.183-.038.375-.281.345-.724.09-.073.183-.128.256-.128.115 0 .345.32.673.32.605 0 .938-.49.976-.72.03-.188.013-.367-.085-.504.217.175.285.448.285.648 0 .857-1.513 1.257-2.13 1.85-.026.02-.047.042-.069.063l-.711-.272-.047.157s-.009.039-.043.137c-.072.243-.23.75-.324 1.04l-.038.115.064.038c-.422.558-.759 1.185-.835 1.832a6.708 6.708 0 0 0-.516-.473.763.763 0 0 0 .038-.196.693.693 0 0 0-.162-.498.491.491 0 0 0-.328-.167.467.467 0 0 0-.345.128l-.064.064c-.026-.021-.051-.038-.077-.06-.234-.178-.524-.391-.698-.587-.073-.081-.15-.128-.307-.128-.06 0-.21-.009-.316-.009-.106 0-.166.081-.285.188a9.402 9.402 0 0 1-.405.32c.085.089.175.178.26.272.047.051.09.107.136.158.051-.039.09-.073.124-.098a.418.418 0 0 1 .264-.077c.09 0 .217.068.307.204.064.099.64.853 1.116 1.377a1.526 1.526 0 0 0-.149.055c-.204.086-.665.069-.865.051-.204-.016-.243-.068-.383.15a2.55 2.55 0 0 1-.188.264c-.068.085-.123.179.021.422.21.354.73 1.287.904 1.709.17.421.375.49.707.622.333.136.895.46.963.537l.022-.324c-.098-.098-.414-.217-.533-.26-.12-.043-.153-.094-.008-.094.144 0 .54.14.822.256-.085-.316-.384-.66-.567-.857-.238-.068-.481-.068-.58.009.013.068-.038.149-.136.149s-.153-.081-.128-.166c.03-.094.175-.128.141-.307-.03-.18-.256-.209-.4-.226-.2-.294-.44-.72-.542-.895-.106-.175-.042-.273.03-.332.175-.14.533.077 1.257.12.252.016.567.029.895.046.094.84.43 1.636 1.598 1.926.571.14 1.16.558 1.36 1.108-2.332-.042-2.698.865-2.698 1.726 0 .976.823.92.823 1.65 0 .634-1.96.898-2.553.988-.503.072-.788.183-1.027.426-.239.243-.486.473-.925.912 0 0 .188.043.375.034l.333-.43c.098-.145.166-.265.23-.252.064.013.021.12-.056.273l-.272.46c1.15.077 1.227-.35 1.227-.524 0-.175-.286-.294-.12-.405.163-.11.307-.034.44.12.132.153.174.285.494.166 0 0 2.505-1.04 2.825-1.185.286-.128.205-.252.034-.392-.187-.153-.217-.405-.217-.67 0-.758.456-.992 1.274-.98a2.802 2.802 0 0 0-.026.367c0 1.185 1.79 2.34 2.276 2.34.213 0 .507-.162.524.554.013.524.12.895.026 1.504-.094.605-.269.699-.63.955-.367.255-.708 1.056-.862 1.227.162.106.337.12.473-.273.111-.324.239-.554.38-.63-.141.353-.248.877-.311 1.035.455.08 1.197-.337 1.197-.66 0-.324-.256-.299-.256-.512 0-.094.115-.2.256-.2.183 0 .324.145.337.213.2-.107.328-.311.323-.78a8.91 8.91 0 0 0-.02-.571.536.536 0 0 0 .456.311.8.8 0 0 0 .498-.136.78.78 0 0 0 .34-.482.53.53 0 0 0-.068-.396.534.534 0 0 0-.336-.222.803.803 0 0 0-.58.124.794.794 0 0 0-.332.439c-.038-.644-.085-1.253-.064-1.496.026-.362.042-.524-.081-.58-.12-.055-.256.15-.43.15-.175 0-.704-.486-.704-.998 0-.51.554-1.172.525-1.87-.009-.218.127-.333.213-.132.106.238.264.562.503.826-.145.882.822 1.739 1.619 1.104-.396.06-.665-.294-.84-.643.069.012.141.017.213.017.039 0 .081 0 .12-.005.281.346 1.167.316 1.398-.54-.154.178-.478.314-.708.285.337-.26.507-.686.507-1.142 0-2.233-2.71-2.493-2.71-4.53 0-.755.66-1.24 1.116-1.24.175 0 .312.055.422.136-.174.179-.268.447-.255.776.072 1.606 2.693 1.525 2.727 2.296.294-1.163-1.662-.805-1.734-2.373" fill="#1C1C1B"/>
</svg>
